<svg xmlns="http://www.w3.org/2000/svg" viewBox="0 0 600 340">
  <defs>
    <linearGradient id="bg" x1="0" y1="0" x2="1" y2="1">
      <stop offset="0%" stop-color="#021b1f"/><stop offset="50%" stop-color="#0a2f38"/><stop offset="100%" stop-color="#134e4a"/>
    </linearGradient>
    <radialGradient id="glow" cx="72%" cy="47%"><stop offset="0%" stop-color="#06b6d4" stop-opacity="0.14"/><stop offset="100%" stop-color="#06b6d4" stop-opacity="0"/></radialGradient>
  </defs>
  <rect width="600" height="340" fill="url(#bg)"/>
  <rect width="600" height="340" fill="url(#glow)"/>
  <circle cx="478" cy="160" r="118" fill="#06b6d4" opacity="0.06"/>
  <!-- Top bar -->
  <rect width="600" height="48" fill="rgba(0,0,0,0.55)"/>
  <rect x="0" y="0" width="4" height="48" fill="#FF9933"/>
  <rect x="4" y="0" width="4" height="48" fill="#ffffff" opacity="0.9"/>
  <rect x="8" y="0" width="4" height="48" fill="#138808"/>
  <text x="22" y="20" font-family="Arial Black,Impact,sans-serif" font-size="11" font-weight="900" fill="#06b6d4" letter-spacing="2.5">RFC ACADEMY</text>
  <text x="22" y="36" font-family="Arial,sans-serif" font-size="8" fill="rgba(255,255,255,0.5)" letter-spacing="1.5">ROYAL FITNESS CLUB · CERTIFIED PROGRAMS</text>
  <rect x="488" y="11" width="104" height="26" rx="5" fill="#0e7490"/>
  <text x="540" y="29" font-family="Arial,sans-serif" font-size="10" font-weight="800" fill="#ffffff" text-anchor="middle" letter-spacing="1.5">ADVANCED</text>
  <!-- Left content block -->
  <rect x="22" y="62" width="3" height="190" fill="#06b6d4" opacity="0.8"/>
  <text x="36" y="82" font-family="Arial,sans-serif" font-size="9" fill="#06b6d4" letter-spacing="2.5" font-weight="700">DIPLOMA PROGRAM</text>
  <text x="36" y="135" font-family="Arial Black,Impact,sans-serif" font-size="46" font-weight="900" fill="#ffffff" opacity="0.97">SPORTS</text>
  <text x="36" y="192" font-family="Arial Black,Impact,sans-serif" font-size="46" font-weight="900" fill="#ffffff" opacity="0.97">PHYSIO</text>
  <text x="36" y="218" font-family="Arial,sans-serif" font-size="12" fill="rgba(255,255,255,0.6)">Rehabilitate · Recover · Return to sport</text>
  <rect x="36" y="232" width="86" height="24" rx="12" fill="rgba(255,255,255,0.08)" stroke="#06b6d4" stroke-width="1" stroke-opacity="0.5"/>
  <text x="79" y="248" font-family="Arial,sans-serif" font-size="9" font-weight="700" fill="#06b6d4" text-anchor="middle">10 MODULES</text>
  <rect x="132" y="232" width="86" height="24" rx="12" fill="rgba(255,255,255,0.08)" stroke="#06b6d4" stroke-width="1" stroke-opacity="0.5"/>
  <text x="175" y="248" font-family="Arial,sans-serif" font-size="9" font-weight="700" fill="#06b6d4" text-anchor="middle">8 WEEKS</text>
  <!-- Anatomy body outline -->
  <!-- Head -->
  <circle cx="468" cy="110" r="22" fill="none" stroke="#06b6d4" stroke-width="1.5" stroke-opacity="0.5"/>
  <!-- Spine -->
  <line x1="468" y1="132" x2="468" y2="230" stroke="#06b6d4" stroke-width="1.5" stroke-opacity="0.4" stroke-dasharray="4,3"/>
  <!-- Ribcage -->
  <ellipse cx="468" cy="175" rx="38" ry="28" fill="none" stroke="#06b6d4" stroke-width="1.5" stroke-opacity="0.4"/>
  <ellipse cx="468" cy="175" rx="28" ry="20" fill="none" stroke="#06b6d4" stroke-width="1" stroke-opacity="0.25"/>
  <!-- Shoulder lines -->
  <line x1="430" y1="145" x2="506" y2="145" stroke="#06b6d4" stroke-width="1.5" stroke-opacity="0.45"/>
  <!-- Arms -->
  <path d="M430 145 Q410 175 415 210" stroke="#06b6d4" stroke-width="8" fill="none" stroke-linecap="round" stroke-opacity="0.2"/>
  <path d="M506 145 Q526 175 521 210" stroke="#06b6d4" stroke-width="8" fill="none" stroke-linecap="round" stroke-opacity="0.2"/>
  <!-- Hip/pelvis -->
  <ellipse cx="468" cy="230" rx="30" ry="16" fill="none" stroke="#06b6d4" stroke-width="1.5" stroke-opacity="0.4"/>
  <!-- Legs -->
  <path d="M455 244 Q448 265 450 285" stroke="#06b6d4" stroke-width="10" fill="none" stroke-linecap="round" stroke-opacity="0.18"/>
  <path d="M481 244 Q488 265 486 285" stroke="#06b6d4" stroke-width="10" fill="none" stroke-linecap="round" stroke-opacity="0.18"/>
  <!-- Joint highlight circles -->
  <circle cx="430" cy="145" r="6" fill="#06b6d4" opacity="0.4"/>
  <circle cx="506" cy="145" r="6" fill="#06b6d4" opacity="0.4"/>
  <circle cx="415" cy="210" r="5" fill="#06b6d4" opacity="0.35"/>
  <circle cx="521" cy="210" r="5" fill="#06b6d4" opacity="0.35"/>
  <circle cx="450" cy="285" r="5" fill="#06b6d4" opacity="0.3"/>
  <circle cx="486" cy="285" r="5" fill="#06b6d4" opacity="0.3"/>
  <!-- Medical cross -->
  <rect x="543" y="135" width="8" height="28" rx="3" fill="#06b6d4" opacity="0.5"/>
  <rect x="535" y="143" width="24" height="8" rx="3" fill="#06b6d4" opacity="0.5"/>
  <text x="428" y="278" font-family="Arial,sans-serif" font-size="9" fill="#06b6d4" text-anchor="middle" letter-spacing="1" opacity="0.7">REHABILITATION</text>
  <!-- Bottom bar -->
  <rect x="0" y="290" width="600" height="50" fill="rgba(0,0,0,0.6)"/>
  <rect x="0" y="290" width="600" height="1.5" fill="rgba(255,255,255,0.12)"/>
  <rect x="22" y="303" width="88" height="27" rx="14" fill="#E8001D"/>
  <text x="66" y="321" font-family="Arial Black,sans-serif" font-size="13" font-weight="900" fill="#ffffff" text-anchor="middle">₹5,499</text>
  <text x="120" y="316" font-family="Arial,sans-serif" font-size="11" fill="rgba(255,255,255,0.38)" text-decoration="line-through">₹10,999</text>
  <rect x="148" y="303" width="54" height="27" rx="5" fill="rgba(220,38,38,0.28)"/>
  <text x="175" y="321" font-family="Arial,sans-serif" font-size="10" font-weight="700" fill="#f87171" text-anchor="middle">50% OFF</text>
  <text x="240" y="316" font-family="Arial,sans-serif" font-size="11" fill="rgba(255,255,255,0.5)">📚 10 modules</text>
  <text x="340" y="316" font-family="Arial,sans-serif" font-size="11" fill="rgba(255,255,255,0.5)">⏱ 8 Weeks</text>
  <text x="430" y="316" font-family="Arial,sans-serif" font-size="11" fill="#fbbf24">★ 4.8</text>
  <text x="460" y="316" font-family="Arial,sans-serif" font-size="10" fill="rgba(255,255,255,0.4)">· 650+</text>
</svg>