<svg xmlns="http://www.w3.org/2000/svg" viewBox="0 0 600 340">
  <defs>
    <linearGradient id="bg" x1="0" y1="0" x2="1" y2="1">
      <stop offset="0%" stop-color="#1c1004"/><stop offset="50%" stop-color="#3b1f06"/><stop offset="100%" stop-color="#6b3a0a"/>
    </linearGradient>
    <radialGradient id="glow" cx="72%" cy="46%"><stop offset="0%" stop-color="#f59e0b" stop-opacity="0.16"/><stop offset="100%" stop-color="#f59e0b" stop-opacity="0"/></radialGradient>
  </defs>
  <rect width="600" height="340" fill="url(#bg)"/>
  <rect width="600" height="340" fill="url(#glow)"/>
  <circle cx="478" cy="158" r="120" fill="#f59e0b" opacity="0.06"/>
  <!-- Top bar -->
  <rect width="600" height="48" fill="rgba(0,0,0,0.55)"/>
  <rect x="0" y="0" width="4" height="48" fill="#FF9933"/>
  <rect x="4" y="0" width="4" height="48" fill="#ffffff" opacity="0.9"/>
  <rect x="8" y="0" width="4" height="48" fill="#138808"/>
  <text x="22" y="20" font-family="Arial Black,Impact,sans-serif" font-size="11" font-weight="900" fill="#f59e0b" letter-spacing="2.5">RFC ACADEMY</text>
  <text x="22" y="36" font-family="Arial,sans-serif" font-size="8" fill="rgba(255,255,255,0.5)" letter-spacing="1.5">ROYAL FITNESS CLUB · CERTIFIED PROGRAMS</text>
  <rect x="488" y="11" width="104" height="26" rx="5" fill="#b45309"/>
  <text x="540" y="29" font-family="Arial,sans-serif" font-size="10" font-weight="800" fill="#ffffff" text-anchor="middle" letter-spacing="1.5">ADVANCED</text>
  <!-- Left content block -->
  <rect x="22" y="62" width="3" height="190" fill="#f59e0b" opacity="0.8"/>
  <text x="36" y="82" font-family="Arial,sans-serif" font-size="9" fill="#f59e0b" letter-spacing="2.5" font-weight="700">SPECIALIST CERTIFICATION</text>
  <text x="36" y="135" font-family="Arial Black,Impact,sans-serif" font-size="46" font-weight="900" fill="#ffffff" opacity="0.97">FAT LOSS</text>
  <text x="36" y="192" font-family="Arial Black,Impact,sans-serif" font-size="46" font-weight="900" fill="#ffffff" opacity="0.97">SPECIALIST</text>
  <text x="36" y="218" font-family="Arial,sans-serif" font-size="12" fill="rgba(255,255,255,0.6)">Science-backed protocols for rapid fat loss</text>
  <rect x="36" y="232" width="86" height="24" rx="12" fill="rgba(255,255,255,0.08)" stroke="#f59e0b" stroke-width="1" stroke-opacity="0.5"/>
  <text x="79" y="248" font-family="Arial,sans-serif" font-size="9" font-weight="700" fill="#f59e0b" text-anchor="middle">8 MODULES</text>
  <rect x="132" y="232" width="86" height="24" rx="12" fill="rgba(255,255,255,0.08)" stroke="#f59e0b" stroke-width="1" stroke-opacity="0.5"/>
  <text x="175" y="248" font-family="Arial,sans-serif" font-size="9" font-weight="700" fill="#f59e0b" text-anchor="middle">6 WEEKS</text>
  <!-- Target / bullseye -->
  <circle cx="468" cy="183" r="90" fill="none" stroke="#f59e0b" stroke-width="1.5" stroke-opacity="0.15"/>
  <circle cx="468" cy="183" r="65" fill="none" stroke="#f59e0b" stroke-width="1.5" stroke-opacity="0.22"/>
  <circle cx="468" cy="183" r="42" fill="none" stroke="#f59e0b" stroke-width="1.5" stroke-opacity="0.32"/>
  <circle cx="468" cy="183" r="22" fill="none" stroke="#f59e0b" stroke-width="2" stroke-opacity="0.5"/>
  <circle cx="468" cy="183" r="8" fill="#f59e0b" opacity="0.7"/>
  <!-- Arrow hitting target -->
  <line x1="410" y1="125" x2="462" y2="179" stroke="#f59e0b" stroke-width="3" stroke-opacity="0.8"/>
  <polygon points="462,179 452,169 458,162" fill="#f59e0b" opacity="0.9"/>
  <!-- Feathers of arrow -->
  <path d="M410 125 L402 118 L414 120 Z" fill="#f59e0b" opacity="0.7"/>
  <path d="M410 125 L404 132 L416 128 Z" fill="#f59e0b" opacity="0.7"/>
  <circle cx="544" cy="174" r="12" fill="rgba(255,255,255,0.13)"/>
  <path d="M540 188 L532 224 L517 260" stroke="rgba(255,255,255,0.13)" stroke-width="12" fill="none" stroke-linecap="round"/>
  <path d="M540 188 L550 222 L567 252" stroke="rgba(255,255,255,0.13)" stroke-width="10" fill="none" stroke-linecap="round"/>
  <path d="M532 219 L514 206" stroke="rgba(255,255,255,0.13)" stroke-width="9" fill="none" stroke-linecap="round"/>
  <path d="M550 218 L568 227" stroke="rgba(255,255,255,0.13)" stroke-width="9" fill="none" stroke-linecap="round"/>
  <text x="420" y="278" font-family="Arial,sans-serif" font-size="9" fill="#f59e0b" text-anchor="middle" letter-spacing="1" opacity="0.7">FAT LOSS SCIENCE</text>
  <!-- Bottom bar -->
  <rect x="0" y="290" width="600" height="50" fill="rgba(0,0,0,0.6)"/>
  <rect x="0" y="290" width="600" height="1.5" fill="rgba(255,255,255,0.12)"/>
  <rect x="22" y="303" width="88" height="27" rx="14" fill="#E8001D"/>
  <text x="66" y="321" font-family="Arial Black,sans-serif" font-size="13" font-weight="900" fill="#ffffff" text-anchor="middle">₹4,999</text>
  <text x="120" y="316" font-family="Arial,sans-serif" font-size="11" fill="rgba(255,255,255,0.38)" text-decoration="line-through">₹9,999</text>
  <rect x="148" y="303" width="54" height="27" rx="5" fill="rgba(220,38,38,0.28)"/>
  <text x="175" y="321" font-family="Arial,sans-serif" font-size="10" font-weight="700" fill="#f87171" text-anchor="middle">50% OFF</text>
  <text x="240" y="316" font-family="Arial,sans-serif" font-size="11" fill="rgba(255,255,255,0.5)">📚 8 modules</text>
  <text x="340" y="316" font-family="Arial,sans-serif" font-size="11" fill="rgba(255,255,255,0.5)">⏱ 6 Weeks</text>
  <text x="430" y="316" font-family="Arial,sans-serif" font-size="11" fill="#fbbf24">★ 4.9</text>
  <text x="460" y="316" font-family="Arial,sans-serif" font-size="10" fill="rgba(255,255,255,0.4)">· 1.4K+</text>
</svg>