<svg xmlns="http://www.w3.org/2000/svg" viewBox="0 0 600 340">
  <defs>
    <linearGradient id="bg" x1="0" y1="0" x2="1" y2="1">
      <stop offset="0%" stop-color="#021a17"/><stop offset="50%" stop-color="#0d2b27"/><stop offset="100%" stop-color="#134e4a"/>
    </linearGradient>
    <radialGradient id="glow" cx="70%" cy="45%"><stop offset="0%" stop-color="#2dd4bf" stop-opacity="0.13"/><stop offset="100%" stop-color="#2dd4bf" stop-opacity="0"/></radialGradient>
  </defs>
  <rect width="600" height="340" fill="url(#bg)"/>
  <rect width="600" height="340" fill="url(#glow)"/>
  <circle cx="470" cy="150" r="120" fill="#2dd4bf" opacity="0.05"/>
  <circle cx="520" cy="260" r="60" fill="#5eead4" opacity="0.04"/>
  <!-- Top bar -->
  <rect width="600" height="48" fill="rgba(0,0,0,0.55)"/>
  <rect x="0" y="0" width="4" height="48" fill="#FF9933"/>
  <rect x="4" y="0" width="4" height="48" fill="#ffffff" opacity="0.9"/>
  <rect x="8" y="0" width="4" height="48" fill="#138808"/>
  <text x="22" y="20" font-family="Arial Black,Impact,sans-serif" font-size="11" font-weight="900" fill="#2dd4bf" letter-spacing="2.5">RFC ACADEMY</text>
  <text x="22" y="36" font-family="Arial,sans-serif" font-size="8" fill="rgba(255,255,255,0.5)" letter-spacing="1.5">ROYAL FITNESS CLUB · CERTIFIED PROGRAMS</text>
  <rect x="488" y="11" width="104" height="26" rx="5" fill="#0d9488"/>
  <text x="540" y="29" font-family="Arial,sans-serif" font-size="10" font-weight="800" fill="#ffffff" text-anchor="middle" letter-spacing="1.5">BEGINNER</text>
  <!-- Left content block -->
  <rect x="22" y="62" width="3" height="190" fill="#2dd4bf" opacity="0.8"/>
  <text x="36" y="82" font-family="Arial,sans-serif" font-size="9" fill="#2dd4bf" letter-spacing="2.5" font-weight="700">CERTIFICATE PROGRAM</text>
  <text x="36" y="135" font-family="Arial Black,Impact,sans-serif" font-size="46" font-weight="900" fill="#ffffff" opacity="0.97">NUTRITION</text>
  <text x="36" y="192" font-family="Arial Black,Impact,sans-serif" font-size="46" font-weight="900" fill="#ffffff" opacity="0.97">ESSENTIALS</text>
  <text x="36" y="218" font-family="Arial,sans-serif" font-size="12" fill="rgba(255,255,255,0.6)">Eat smart · Live strong · Feel amazing</text>
  <rect x="36" y="232" width="86" height="24" rx="12" fill="rgba(255,255,255,0.08)" stroke="#2dd4bf" stroke-width="1" stroke-opacity="0.5"/>
  <text x="79" y="248" font-family="Arial,sans-serif" font-size="9" font-weight="700" fill="#2dd4bf" text-anchor="middle">8 MODULES</text>
  <rect x="132" y="232" width="86" height="24" rx="12" fill="rgba(255,255,255,0.08)" stroke="#2dd4bf" stroke-width="1" stroke-opacity="0.5"/>
  <text x="175" y="248" font-family="Arial,sans-serif" font-size="9" font-weight="700" fill="#2dd4bf" text-anchor="middle">4 WEEKS</text>
  <!-- Plate / bowl illustration -->
  <ellipse cx="458" cy="200" rx="88" ry="68" fill="none" stroke="#2dd4bf" stroke-width="2" stroke-opacity="0.35"/>
  <ellipse cx="458" cy="200" rx="65" ry="50" fill="rgba(45,212,191,0.08)"/>
  <!-- food items on plate -->
  <ellipse cx="440" cy="192" rx="20" ry="14" fill="rgba(74,222,128,0.35)"/>
  <ellipse cx="472" cy="195" rx="16" ry="12" fill="rgba(251,191,36,0.35)"/>
  <ellipse cx="455" cy="215" rx="18" ry="12" fill="rgba(248,113,113,0.35)"/>
  <ellipse cx="435" cy="215" rx="12" ry="10" fill="rgba(167,243,208,0.35)"/>
  <!-- fork -->
  <line x1="555" y1="145" x2="545" y2="250" stroke="#2dd4bf" stroke-width="3" stroke-opacity="0.5" stroke-linecap="round"/>
  <line x1="545" y1="145" x2="542" y2="175" stroke="#2dd4bf" stroke-width="2" stroke-opacity="0.4"/>
  <line x1="548" y1="145" x2="546" y2="175" stroke="#2dd4bf" stroke-width="2" stroke-opacity="0.4"/>
  <line x1="551" y1="145" x2="549" y2="175" stroke="#2dd4bf" stroke-width="2" stroke-opacity="0.4"/>
  <!-- macros ring -->
  <circle cx="458" cy="200" r="80" fill="none" stroke="#2dd4bf" stroke-width="1" stroke-opacity="0.12" stroke-dasharray="6,5"/>
  <circle cx="458" cy="200" r="55" fill="none" stroke="#2dd4bf" stroke-width="1" stroke-opacity="0.18" stroke-dasharray="4,4"/>
  <circle cx="458" cy="200" r="30" fill="#2dd4bf" opacity="0.08"/>
  <text x="412" y="278" font-family="Arial,sans-serif" font-size="9" fill="#2dd4bf" text-anchor="middle" letter-spacing="1" opacity="0.7">NUTRITION SCIENCE</text>
  <!-- Bottom bar -->
  <rect x="0" y="290" width="600" height="50" fill="rgba(0,0,0,0.6)"/>
  <rect x="0" y="290" width="600" height="1.5" fill="rgba(255,255,255,0.12)"/>
  <rect x="22" y="303" width="88" height="27" rx="14" fill="#E8001D"/>
  <text x="66" y="321" font-family="Arial Black,sans-serif" font-size="13" font-weight="900" fill="#ffffff" text-anchor="middle">₹3,499</text>
  <text x="120" y="316" font-family="Arial,sans-serif" font-size="11" fill="rgba(255,255,255,0.38)" text-decoration="line-through">₹6,999</text>
  <rect x="148" y="303" width="54" height="27" rx="5" fill="rgba(220,38,38,0.28)"/>
  <text x="175" y="321" font-family="Arial,sans-serif" font-size="10" font-weight="700" fill="#f87171" text-anchor="middle">50% OFF</text>
  <text x="240" y="316" font-family="Arial,sans-serif" font-size="11" fill="rgba(255,255,255,0.5)">📚 8 modules</text>
  <text x="340" y="316" font-family="Arial,sans-serif" font-size="11" fill="rgba(255,255,255,0.5)">⏱ 4 Weeks</text>
  <text x="430" y="316" font-family="Arial,sans-serif" font-size="11" fill="#fbbf24">★ 4.8</text>
  <text x="460" y="316" font-family="Arial,sans-serif" font-size="10" fill="rgba(255,255,255,0.4)">· 1.9K+</text>
</svg>