<svg xmlns="http://www.w3.org/2000/svg" viewBox="0 0 600 340">
  <defs>
    <linearGradient id="bg" x1="0" y1="0" x2="1" y2="1">
      <stop offset="0%" stop-color="#021d0e"/><stop offset="55%" stop-color="#052e16"/><stop offset="100%" stop-color="#064e3b"/>
    </linearGradient>
    <radialGradient id="glow" cx="75%" cy="50%"><stop offset="0%" stop-color="#22c55e" stop-opacity="0.14"/><stop offset="100%" stop-color="#22c55e" stop-opacity="0"/></radialGradient>
  </defs>
  <rect width="600" height="340" fill="url(#bg)"/>
  <rect width="600" height="340" fill="url(#glow)"/>
  <!-- bokeh -->
  <circle cx="480" cy="140" r="130" fill="#22c55e" opacity="0.05"/>
  <circle cx="530" cy="240" r="70" fill="#4ade80" opacity="0.04"/>
  <!-- Top bar -->
  <rect width="600" height="48" fill="rgba(0,0,0,0.55)"/>
  <rect x="0" y="0" width="4" height="48" fill="#FF9933"/>
  <rect x="4" y="0" width="4" height="48" fill="#ffffff" opacity="0.9"/>
  <rect x="8" y="0" width="4" height="48" fill="#138808"/>
  <text x="22" y="20" font-family="Arial Black,Impact,sans-serif" font-size="11" font-weight="900" fill="#22c55e" letter-spacing="2.5">RFC ACADEMY</text>
  <text x="22" y="36" font-family="Arial,sans-serif" font-size="8" fill="rgba(255,255,255,0.5)" letter-spacing="1.5">ROYAL FITNESS CLUB · CERTIFIED PROGRAMS</text>
  <rect x="488" y="11" width="104" height="26" rx="5" fill="#16a34a"/>
  <text x="540" y="29" font-family="Arial,sans-serif" font-size="10" font-weight="800" fill="#ffffff" text-anchor="middle" letter-spacing="1.5">BEGINNER</text>
  <!-- Left content block -->
  <rect x="22" y="62" width="3" height="190" fill="#22c55e" opacity="0.8"/>
  <text x="36" y="82" font-family="Arial,sans-serif" font-size="9" fill="#22c55e" letter-spacing="2.5" font-weight="700">CERTIFICATE PROGRAM</text>
  <text x="36" y="135" font-family="Arial Black,Impact,sans-serif" font-size="46" font-weight="900" fill="#ffffff" opacity="0.97">FITNESS</text>
  <text x="36" y="192" font-family="Arial Black,Impact,sans-serif" font-size="46" font-weight="900" fill="#ffffff" opacity="0.97">FOUNDATIONS</text>
  <text x="36" y="218" font-family="Arial,sans-serif" font-size="12" fill="rgba(255,255,255,0.6)">Build strength from the ground up</text>
  <rect x="36" y="232" width="86" height="24" rx="12" fill="rgba(255,255,255,0.08)" stroke="#22c55e" stroke-width="1" stroke-opacity="0.5"/>
  <text x="79" y="248" font-family="Arial,sans-serif" font-size="9" font-weight="700" fill="#22c55e" text-anchor="middle">8 MODULES</text>
  <rect x="132" y="232" width="86" height="24" rx="12" fill="rgba(255,255,255,0.08)" stroke="#22c55e" stroke-width="1" stroke-opacity="0.5"/>
  <text x="175" y="248" font-family="Arial,sans-serif" font-size="9" font-weight="700" fill="#22c55e" text-anchor="middle">4 WEEKS</text>
  <!-- dumbbell illustration right -->
  <rect x="390" y="159" width="130" height="12" rx="5" fill="#22c55e55"/>
  <rect x="368" y="143" width="22" height="44" rx="5" fill="#22c55e55"/>
  <rect x="520" y="143" width="22" height="44" rx="5" fill="#22c55e55"/>
  <rect x="400" y="215" width="110" height="10" rx="5" fill="rgba(34,197,94,0.25)"/>
  <rect x="382" y="202" width="18" height="36" rx="5" fill="rgba(34,197,94,0.25)"/>
  <rect x="510" y="202" width="18" height="36" rx="5" fill="rgba(34,197,94,0.25)"/>
  <circle cx="455" cy="162" r="17" fill="rgba(255,255,255,0.11)"/>
  <ellipse cx="455" cy="201" rx="15" ry="26" fill="rgba(255,255,255,0.11)"/>
  <path d="M439 222 Q422 244 430 261 L444 261 Q450 244 455 222 Z" fill="rgba(255,255,255,0.11)"/>
  <path d="M455 222 Q459 244 466 261 L479 261 Q488 244 470 222 Z" fill="rgba(255,255,255,0.11)"/>
  <circle cx="460" cy="180" r="80" fill="none" stroke="#22c55e" stroke-width="1" stroke-opacity="0.12" stroke-dasharray="6,5"/>
  <circle cx="460" cy="180" r="55" fill="none" stroke="#22c55e" stroke-width="1" stroke-opacity="0.18" stroke-dasharray="4,4"/>
  <circle cx="460" cy="180" r="30" fill="#22c55e" opacity="0.08"/>
  <text x="410" y="278" font-family="Arial,sans-serif" font-size="9" fill="#22c55e" text-anchor="middle" letter-spacing="1" opacity="0.7">STRENGTH TRAINING</text>
  <!-- Bottom bar -->
  <rect x="0" y="290" width="600" height="50" fill="rgba(0,0,0,0.6)"/>
  <rect x="0" y="290" width="600" height="1.5" fill="rgba(255,255,255,0.12)"/>
  <rect x="22" y="303" width="88" height="27" rx="14" fill="#E8001D"/>
  <text x="66" y="321" font-family="Arial Black,sans-serif" font-size="13" font-weight="900" fill="#ffffff" text-anchor="middle">₹2,999</text>
  <text x="120" y="316" font-family="Arial,sans-serif" font-size="11" fill="rgba(255,255,255,0.38)" text-decoration="line-through">₹5,999</text>
  <rect x="148" y="303" width="54" height="27" rx="5" fill="rgba(220,38,38,0.28)"/>
  <text x="175" y="321" font-family="Arial,sans-serif" font-size="10" font-weight="700" fill="#f87171" text-anchor="middle">50% OFF</text>
  <text x="240" y="316" font-family="Arial,sans-serif" font-size="11" fill="rgba(255,255,255,0.5)">📚 8 modules</text>
  <text x="340" y="316" font-family="Arial,sans-serif" font-size="11" fill="rgba(255,255,255,0.5)">⏱ 4 Weeks</text>
  <text x="430" y="316" font-family="Arial,sans-serif" font-size="11" fill="#fbbf24">★ 4.9</text>
  <text x="460" y="316" font-family="Arial,sans-serif" font-size="10" fill="rgba(255,255,255,0.4)">· 2.3K+</text>
</svg>