<svg xmlns="http://www.w3.org/2000/svg" viewBox="0 0 600 340">
  <defs>
    <linearGradient id="bg" x1="0" y1="0" x2="1" y2="1">
      <stop offset="0%" stop-color="#0f0000"/><stop offset="50%" stop-color="#1f0505"/><stop offset="100%" stop-color="#3b0b0b"/>
    </linearGradient>
    <radialGradient id="glow" cx="72%" cy="46%"><stop offset="0%" stop-color="#ef4444" stop-opacity="0.16"/><stop offset="100%" stop-color="#ef4444" stop-opacity="0"/></radialGradient>
  </defs>
  <rect width="600" height="340" fill="url(#bg)"/>
  <rect width="600" height="340" fill="url(#glow)"/>
  <circle cx="480" cy="155" r="120" fill="#ef4444" opacity="0.06"/>
  <!-- Top bar -->
  <rect width="600" height="48" fill="rgba(0,0,0,0.55)"/>
  <rect x="0" y="0" width="4" height="48" fill="#FF9933"/>
  <rect x="4" y="0" width="4" height="48" fill="#ffffff" opacity="0.9"/>
  <rect x="8" y="0" width="4" height="48" fill="#138808"/>
  <text x="22" y="20" font-family="Arial Black,Impact,sans-serif" font-size="11" font-weight="900" fill="#ef4444" letter-spacing="2.5">RFC ACADEMY</text>
  <text x="22" y="36" font-family="Arial,sans-serif" font-size="8" fill="rgba(255,255,255,0.5)" letter-spacing="1.5">ROYAL FITNESS CLUB · CERTIFIED PROGRAMS</text>
  <rect x="488" y="11" width="104" height="26" rx="5" fill="#991b1b"/>
  <text x="540" y="29" font-family="Arial,sans-serif" font-size="10" font-weight="800" fill="#ffffff" text-anchor="middle" letter-spacing="1.5">MASTER  18+</text>
  <!-- Left content block -->
  <rect x="22" y="62" width="3" height="190" fill="#ef4444" opacity="0.8"/>
  <text x="36" y="82" font-family="Arial,sans-serif" font-size="9" fill="#ef4444" letter-spacing="2.5" font-weight="700">MASTER PROGRAM  ⚠️ 18+</text>
  <text x="36" y="135" font-family="Arial Black,Impact,sans-serif" font-size="46" font-weight="900" fill="#ffffff" opacity="0.97">PHARMA</text>
  <text x="36" y="192" font-family="Arial Black,Impact,sans-serif" font-size="46" font-weight="900" fill="#ffffff" opacity="0.97">SCIENCE</text>
  <text x="36" y="218" font-family="Arial,sans-serif" font-size="12" fill="rgba(255,255,255,0.6)">Evidence-based performance pharmacology</text>
  <rect x="36" y="232" width="86" height="24" rx="12" fill="rgba(255,255,255,0.08)" stroke="#ef4444" stroke-width="1" stroke-opacity="0.5"/>
  <text x="79" y="248" font-family="Arial,sans-serif" font-size="9" font-weight="700" fill="#ef4444" text-anchor="middle">12 MODULES</text>
  <rect x="132" y="232" width="86" height="24" rx="12" fill="rgba(255,255,255,0.08)" stroke="#ef4444" stroke-width="1" stroke-opacity="0.5"/>
  <text x="175" y="248" font-family="Arial,sans-serif" font-size="9" font-weight="700" fill="#ef4444" text-anchor="middle">14 WEEKS</text>
  <!-- Flask / Erlenmeyer flask illustration -->
  <!-- Flask body -->
  <path d="M440 130 L440 185 L408 240 L535 240 L502 185 L502 130 Z" fill="rgba(239,68,68,0.12)" stroke="#ef4444" stroke-width="1.5" stroke-opacity="0.5"/>
  <!-- Flask neck -->
  <rect x="455" y="108" width="32" height="26" rx="3" fill="rgba(239,68,68,0.15)" stroke="#ef4444" stroke-width="1.5" stroke-opacity="0.5"/>
  <!-- Flask stopper -->
  <rect x="451" y="104" width="40" height="8" rx="2" fill="#ef4444" opacity="0.5"/>
  <!-- Liquid in flask -->
  <path d="M440 210 L420 240 L525 240 L505 210 Z" fill="rgba(239,68,68,0.3)"/>
  <!-- Bubbles in liquid -->
  <circle cx="455" cy="225" r="5" fill="#ef4444" opacity="0.35"/>
  <circle cx="475" cy="218" r="4" fill="#ef4444" opacity="0.3"/>
  <circle cx="495" cy="228" r="3" fill="#ef4444" opacity="0.25"/>
  <!-- Rising bubbles -->
  <circle cx="462" cy="195" r="3" fill="#ef4444" opacity="0.2"/>
  <circle cx="482" cy="188" r="2.5" fill="#ef4444" opacity="0.18"/>
  <circle cx="471" cy="175" r="2" fill="#ef4444" opacity="0.15"/>
  <!-- Molecule dots around -->
  <circle cx="570" cy="165" r="12" fill="#ef4444" opacity="0.6"/>
  <line x1="540" y1="165" x2="570" y2="165" stroke="#ef4444" stroke-width="3" opacity="0.35"/>
  <circle cx="549" cy="193" r="12" fill="#ef4444" opacity="0.6"/>
  <line x1="540" y1="165" x2="549" y2="193" stroke="#ef4444" stroke-width="3" opacity="0.35"/>
  <circle cx="515" cy="182" r="12" fill="#ef4444" opacity="0.6"/>
  <line x1="540" y1="165" x2="515" y2="182" stroke="#ef4444" stroke-width="3" opacity="0.35"/>
  <circle cx="515" cy="147" r="12" fill="#ef4444" opacity="0.6"/>
  <line x1="540" y1="165" x2="515" y2="147" stroke="#ef4444" stroke-width="3" opacity="0.35"/>
  <circle cx="549" cy="136" r="12" fill="#ef4444" opacity="0.6"/>
  <line x1="540" y1="165" x2="549" y2="136" stroke="#ef4444" stroke-width="3" opacity="0.35"/>
  <circle cx="540" cy="165" r="18" fill="#ef4444" opacity="0.7"/>

  <text x="430" y="278" font-family="Arial,sans-serif" font-size="9" fill="#ef4444" text-anchor="middle" letter-spacing="1" opacity="0.7">EDUCATIONAL · 18+ ONLY</text>
  <!-- Bottom bar -->
  <rect x="0" y="290" width="600" height="50" fill="rgba(0,0,0,0.6)"/>
  <rect x="0" y="290" width="600" height="1.5" fill="rgba(255,255,255,0.12)"/>
  <rect x="22" y="303" width="88" height="27" rx="14" fill="#E8001D"/>
  <text x="66" y="321" font-family="Arial Black,sans-serif" font-size="13" font-weight="900" fill="#ffffff" text-anchor="middle">₹9,999</text>
  <text x="120" y="316" font-family="Arial,sans-serif" font-size="11" fill="rgba(255,255,255,0.38)" text-decoration="line-through">₹19,999</text>
  <rect x="148" y="303" width="54" height="27" rx="5" fill="rgba(220,38,38,0.28)"/>
  <text x="175" y="321" font-family="Arial,sans-serif" font-size="10" font-weight="700" fill="#f87171" text-anchor="middle">50% OFF</text>
  <text x="240" y="316" font-family="Arial,sans-serif" font-size="11" fill="rgba(255,255,255,0.5)">📚 12 modules</text>
  <text x="340" y="316" font-family="Arial,sans-serif" font-size="11" fill="rgba(255,255,255,0.5)">⏱ 14 Weeks</text>
  <text x="430" y="316" font-family="Arial,sans-serif" font-size="11" fill="#fbbf24">★ 4.9</text>
  <text x="460" y="316" font-family="Arial,sans-serif" font-size="10" fill="rgba(255,255,255,0.4)">· 290+</text>
</svg>