<svg xmlns="http://www.w3.org/2000/svg" viewBox="0 0 600 340">
  <defs>
    <linearGradient id="bg" x1="0" y1="0" x2="1" y2="1">
      <stop offset="0%" stop-color="#020e0d"/><stop offset="50%" stop-color="#0a1f1e"/><stop offset="100%" stop-color="#0f3635"/>
    </linearGradient>
    <radialGradient id="glow" cx="72%" cy="46%"><stop offset="0%" stop-color="#14b8a6" stop-opacity="0.16"/><stop offset="100%" stop-color="#14b8a6" stop-opacity="0"/></radialGradient>
  </defs>
  <rect width="600" height="340" fill="url(#bg)"/>
  <rect width="600" height="340" fill="url(#glow)"/>
  <circle cx="480" cy="155" r="120" fill="#14b8a6" opacity="0.06"/>
  <!-- Top bar -->
  <rect width="600" height="48" fill="rgba(0,0,0,0.55)"/>
  <rect x="0" y="0" width="4" height="48" fill="#FF9933"/>
  <rect x="4" y="0" width="4" height="48" fill="#ffffff" opacity="0.9"/>
  <rect x="8" y="0" width="4" height="48" fill="#138808"/>
  <text x="22" y="20" font-family="Arial Black,Impact,sans-serif" font-size="11" font-weight="900" fill="#14b8a6" letter-spacing="2.5">RFC ACADEMY</text>
  <text x="22" y="36" font-family="Arial,sans-serif" font-size="8" fill="rgba(255,255,255,0.5)" letter-spacing="1.5">ROYAL FITNESS CLUB · CERTIFIED PROGRAMS</text>
  <rect x="488" y="11" width="104" height="26" rx="5" fill="#0f766e"/>
  <text x="540" y="29" font-family="Arial,sans-serif" font-size="10" font-weight="800" fill="#ffffff" text-anchor="middle" letter-spacing="1.5">MASTER</text>
  <!-- Left content block -->
  <rect x="22" y="62" width="3" height="190" fill="#14b8a6" opacity="0.8"/>
  <text x="36" y="82" font-family="Arial,sans-serif" font-size="9" fill="#14b8a6" letter-spacing="2.5" font-weight="700">EXPERT CERTIFICATION</text>
  <text x="36" y="135" font-family="Arial Black,Impact,sans-serif" font-size="46" font-weight="900" fill="#ffffff" opacity="0.97">SPORTS</text>
  <text x="36" y="192" font-family="Arial Black,Impact,sans-serif" font-size="46" font-weight="900" fill="#ffffff" opacity="0.97">MEDICINE</text>
  <text x="36" y="218" font-family="Arial,sans-serif" font-size="12" fill="rgba(255,255,255,0.6)">Advanced clinical sports medicine expertise</text>
  <rect x="36" y="232" width="86" height="24" rx="12" fill="rgba(255,255,255,0.08)" stroke="#14b8a6" stroke-width="1" stroke-opacity="0.5"/>
  <text x="79" y="248" font-family="Arial,sans-serif" font-size="9" font-weight="700" fill="#14b8a6" text-anchor="middle">14 MODULES</text>
  <rect x="132" y="232" width="86" height="24" rx="12" fill="rgba(255,255,255,0.08)" stroke="#14b8a6" stroke-width="1" stroke-opacity="0.5"/>
  <text x="175" y="248" font-family="Arial,sans-serif" font-size="9" font-weight="700" fill="#14b8a6" text-anchor="middle">12 WEEKS</text>
  <!-- Stethoscope illustration -->
  <!-- Earpiece left -->
  <circle cx="422" cy="118" r="8" fill="#14b8a6" opacity="0.45"/>
  <!-- Earpiece right -->
  <circle cx="514" cy="118" r="8" fill="#14b8a6" opacity="0.45"/>
  <!-- Tubing from earpieces down to Y junction -->
  <path d="M422 126 Q422 155 468 170" stroke="#14b8a6" stroke-width="5" fill="none" stroke-linecap="round" stroke-opacity="0.55"/>
  <path d="M514 126 Q514 155 468 170" stroke="#14b8a6" stroke-width="5" fill="none" stroke-linecap="round" stroke-opacity="0.55"/>
  <!-- Tube down to chestpiece -->
  <path d="M468 170 Q468 210 480 235" stroke="#14b8a6" stroke-width="5" fill="none" stroke-linecap="round" stroke-opacity="0.55"/>
  <!-- Chestpiece -->
  <circle cx="482" cy="242" r="18" fill="#14b8a6" opacity="0.35"/>
  <circle cx="482" cy="242" r="12" fill="#14b8a6" opacity="0.5"/>
  <circle cx="482" cy="242" r="5" fill="#14b8a6" opacity="0.8"/>
  <!-- Medical cross in background -->
  <rect x="538" y="120" width="10" height="36" rx="4" fill="#14b8a6" opacity="0.3"/>
  <rect x="524" y="134" width="38" height="10" rx="4" fill="#14b8a6" opacity="0.3"/>
  <circle cx="468" cy="185" r="80" fill="none" stroke="#14b8a6" stroke-width="1" stroke-opacity="0.12" stroke-dasharray="6,5"/>
  <circle cx="468" cy="185" r="55" fill="none" stroke="#14b8a6" stroke-width="1" stroke-opacity="0.18" stroke-dasharray="4,4"/>
  <circle cx="468" cy="185" r="30" fill="#14b8a6" opacity="0.08"/>
  <text x="420" y="278" font-family="Arial,sans-serif" font-size="9" fill="#14b8a6" text-anchor="middle" letter-spacing="1" opacity="0.7">SPORTS MEDICINE</text>
  <!-- Bottom bar -->
  <rect x="0" y="290" width="600" height="50" fill="rgba(0,0,0,0.6)"/>
  <rect x="0" y="290" width="600" height="1.5" fill="rgba(255,255,255,0.12)"/>
  <rect x="22" y="303" width="88" height="27" rx="14" fill="#E8001D"/>
  <text x="66" y="321" font-family="Arial Black,sans-serif" font-size="13" font-weight="900" fill="#ffffff" text-anchor="middle">₹8,999</text>
  <text x="120" y="316" font-family="Arial,sans-serif" font-size="11" fill="rgba(255,255,255,0.38)" text-decoration="line-through">₹17,999</text>
  <rect x="148" y="303" width="54" height="27" rx="5" fill="rgba(220,38,38,0.28)"/>
  <text x="175" y="321" font-family="Arial,sans-serif" font-size="10" font-weight="700" fill="#f87171" text-anchor="middle">50% OFF</text>
  <text x="240" y="316" font-family="Arial,sans-serif" font-size="11" fill="rgba(255,255,255,0.5)">📚 14 modules</text>
  <text x="340" y="316" font-family="Arial,sans-serif" font-size="11" fill="rgba(255,255,255,0.5)">⏱ 12 Weeks</text>
  <text x="430" y="316" font-family="Arial,sans-serif" font-size="11" fill="#fbbf24">★ 4.8</text>
  <text x="460" y="316" font-family="Arial,sans-serif" font-size="10" fill="rgba(255,255,255,0.4)">· 220+</text>
</svg>