<svg xmlns="http://www.w3.org/2000/svg" viewBox="0 0 600 340">
  <defs>
    <linearGradient id="bg" x1="0" y1="0" x2="1" y2="1">
      <stop offset="0%" stop-color="#0a0700"/><stop offset="45%" stop-color="#1a1200"/><stop offset="100%" stop-color="#2d2000"/>
    </linearGradient>
    <linearGradient id="gold" x1="0" y1="0" x2="0" y2="1">
      <stop offset="0%" stop-color="#fbbf24"/><stop offset="100%" stop-color="#d97706"/>
    </linearGradient>
    <radialGradient id="glow" cx="72%" cy="46%"><stop offset="0%" stop-color="#eab308" stop-opacity="0.2"/><stop offset="100%" stop-color="#eab308" stop-opacity="0"/></radialGradient>
  </defs>
  <rect width="600" height="340" fill="url(#bg)"/>
  <rect width="600" height="340" fill="url(#glow)"/>
  <circle cx="480" cy="155" r="130" fill="#eab308" opacity="0.07"/>
  <circle cx="540" cy="250" r="65" fill="#fbbf24" opacity="0.04"/>
  <!-- Top bar -->
  <rect width="600" height="48" fill="rgba(0,0,0,0.55)"/>
  <rect x="0" y="0" width="4" height="48" fill="#FF9933"/>
  <rect x="4" y="0" width="4" height="48" fill="#ffffff" opacity="0.9"/>
  <rect x="8" y="0" width="4" height="48" fill="#138808"/>
  <text x="22" y="20" font-family="Arial Black,Impact,sans-serif" font-size="11" font-weight="900" fill="#fbbf24" letter-spacing="2.5">RFC ACADEMY</text>
  <text x="22" y="36" font-family="Arial,sans-serif" font-size="8" fill="rgba(255,255,255,0.5)" letter-spacing="1.5">ROYAL FITNESS CLUB · CERTIFIED PROGRAMS</text>
  <rect x="488" y="11" width="104" height="26" rx="5" fill="#92400e"/>
  <text x="540" y="29" font-family="Arial,sans-serif" font-size="10" font-weight="800" fill="#ffffff" text-anchor="middle" letter-spacing="1.5">MASTER</text>
  <!-- Left content block -->
  <rect x="22" y="62" width="3" height="190" fill="#fbbf24" opacity="0.8"/>
  <text x="36" y="82" font-family="Arial,sans-serif" font-size="9" fill="#fbbf24" letter-spacing="2.5" font-weight="700">MASTER CERTIFICATION</text>
  <text x="36" y="135" font-family="Arial Black,Impact,sans-serif" font-size="46" font-weight="900" fill="#ffffff" opacity="0.97">ELITE</text>
  <text x="36" y="192" font-family="Arial Black,Impact,sans-serif" font-size="46" font-weight="900" fill="#ffffff" opacity="0.97">PERFORMANCE</text>
  <text x="36" y="218" font-family="Arial,sans-serif" font-size="12" fill="rgba(255,255,255,0.6)">Peak performance · Elite coaching mastery</text>
  <rect x="36" y="232" width="86" height="24" rx="12" fill="rgba(255,255,255,0.08)" stroke="#fbbf24" stroke-width="1" stroke-opacity="0.5"/>
  <text x="79" y="248" font-family="Arial,sans-serif" font-size="9" font-weight="700" fill="#fbbf24" text-anchor="middle">15 MODULES</text>
  <rect x="132" y="232" width="86" height="24" rx="12" fill="rgba(255,255,255,0.08)" stroke="#fbbf24" stroke-width="1" stroke-opacity="0.5"/>
  <text x="175" y="248" font-family="Arial,sans-serif" font-size="9" font-weight="700" fill="#fbbf24" text-anchor="middle">16 WEEKS</text>
  <!-- Crown illustration -->
  <path d="M395 200 L395 240 L545 240 L545 200 L530 170 L510 200 L470 160 L430 200 L410 170 Z" fill="url(#gold)" opacity="0.7"/>
  <circle cx="470" cy="157" r="10" fill="#fbbf24" opacity="0.9"/>
  <circle cx="530" cy="168" r="8" fill="#fbbf24" opacity="0.8"/>
  <circle cx="410" cy="168" r="8" fill="#fbbf24" opacity="0.8"/>
  <!-- Gems on crown -->
  <polygon points="428,198 436,186 444,198 436,210" fill="#ef4444" opacity="0.8"/>
  <polygon points="461,196 469,184 477,196 469,208" fill="#3b82f6" opacity="0.8"/>
  <polygon points="496,198 504,186 512,198 504,210" fill="#22c55e" opacity="0.8"/>
  <!-- Shine on crown -->
  <path d="M400 205 L395 200 L410 170 L430 200" fill="rgba(255,255,255,0.12)"/>
  <!-- Stars -->
  <text x="430" y="275" font-family="Arial,sans-serif" font-size="14" fill="#fbbf24" opacity="0.7">✦ ✦ ✦ ✦ ✦</text>
  <!-- Bottom bar -->
  <rect x="0" y="290" width="600" height="50" fill="rgba(0,0,0,0.6)"/>
  <rect x="0" y="290" width="600" height="1.5" fill="rgba(255,255,255,0.12)"/>
  <rect x="22" y="303" width="88" height="27" rx="14" fill="#E8001D"/>
  <text x="66" y="321" font-family="Arial Black,sans-serif" font-size="13" font-weight="900" fill="#ffffff" text-anchor="middle">₹9,999</text>
  <text x="120" y="316" font-family="Arial,sans-serif" font-size="11" fill="rgba(255,255,255,0.38)" text-decoration="line-through">₹19,999</text>
  <rect x="148" y="303" width="54" height="27" rx="5" fill="rgba(220,38,38,0.28)"/>
  <text x="175" y="321" font-family="Arial,sans-serif" font-size="10" font-weight="700" fill="#f87171" text-anchor="middle">50% OFF</text>
  <text x="240" y="316" font-family="Arial,sans-serif" font-size="11" fill="rgba(255,255,255,0.5)">📚 15 modules</text>
  <text x="340" y="316" font-family="Arial,sans-serif" font-size="11" fill="rgba(255,255,255,0.5)">⏱ 16 Weeks</text>
  <text x="430" y="316" font-family="Arial,sans-serif" font-size="11" fill="#fbbf24">★ 4.9</text>
  <text x="460" y="316" font-family="Arial,sans-serif" font-size="10" fill="rgba(255,255,255,0.4)">· 380+</text>
</svg>